<svg id="visual" viewBox="0 0 900 600" width="900" height="600" xmlns="http://www.w3.org/2000/svg" xmlns:xlink="http://www.w3.org/1999/xlink" version="1.1"><g stroke-width="1" stroke-linejoin="bevel"><path d="M424 302L482 362L486 279Z" fill="#ff99c8" stroke="#ff99c8"></path><path d="M424 302L426 395L482 362Z" fill="#cf7fb3" stroke="#cf7fb3"></path><path d="M482 362L569 288L486 279Z" fill="#b872a7" stroke="#b872a7"></path><path d="M535 210L406 228L486 279Z" fill="#242247" stroke="#242247"></path><path d="M486 279L406 228L424 302Z" fill="#ff99c8" stroke="#ff99c8"></path><path d="M424 302L303 310L426 395Z" fill="#242247" stroke="#242247"></path><path d="M569 288L535 210L486 279Z" fill="#4a3864" stroke="#4a3864"></path><path d="M426 395L477 470L482 362Z" fill="#a1669b" stroke="#a1669b"></path><path d="M482 362L634 360L569 288Z" fill="#744e81" stroke="#744e81"></path><path d="M406 228L303 310L424 302Z" fill="#4a3864" stroke="#4a3864"></path><path d="M426 395L385 481L477 470Z" fill="#cf7fb3" stroke="#cf7fb3"></path><path d="M477 470L634 360L482 362Z" fill="#4a3864" stroke="#4a3864"></path><path d="M569 288L562 173L535 210Z" fill="#b872a7" stroke="#b872a7"></path><path d="M677 229L562 173L569 288Z" fill="#ff99c8" stroke="#ff99c8"></path><path d="M535 210L436 139L406 228Z" fill="#744e81" stroke="#744e81"></path><path d="M302 432L385 481L426 395Z" fill="#e78cbe" stroke="#e78cbe"></path><path d="M562 173L436 139L535 210Z" fill="#cf7fb3" stroke="#cf7fb3"></path><path d="M406 228L261 209L303 310Z" fill="#8a5a8e" stroke="#8a5a8e"></path><path d="M303 310L302 432L426 395Z" fill="#b872a7" stroke="#b872a7"></path><path d="M634 360L666 316L569 288Z" fill="#cf7fb3" stroke="#cf7fb3"></path><path d="M477 470L662 393L634 360Z" fill="#372d56" stroke="#372d56"></path><path d="M634 360L662 393L666 316Z" fill="#5f4373" stroke="#5f4373"></path><path d="M666 316L677 229L569 288Z" fill="#8a5a8e" stroke="#8a5a8e"></path><path d="M766 207L677 229L797 312Z" fill="#372d56" stroke="#372d56"></path><path d="M436 139L261 209L406 228Z" fill="#372d56" stroke="#372d56"></path><path d="M303 310L214 372L302 432Z" fill="#ff99c8" stroke="#ff99c8"></path><path d="M617 74L491 82L562 173Z" fill="#4a3864" stroke="#4a3864"></path><path d="M562 173L491 82L436 139Z" fill="#a1669b" stroke="#a1669b"></path><path d="M436 139L288 68L261 209Z" fill="#ff99c8" stroke="#ff99c8"></path><path d="M302 432L287 495L385 481Z" fill="#8a5a8e" stroke="#8a5a8e"></path><path d="M482 600L605 537L477 470Z" fill="#a1669b" stroke="#a1669b"></path><path d="M214 372L287 495L302 432Z" fill="#4a3864" stroke="#4a3864"></path><path d="M216 132L234 219L261 209Z" fill="#372d56" stroke="#372d56"></path><path d="M261 209L234 219L303 310Z" fill="#ff99c8" stroke="#ff99c8"></path><path d="M234 219L213 320L303 310Z" fill="#372d56" stroke="#372d56"></path><path d="M213 320L214 372L303 310Z" fill="#ff99c8" stroke="#ff99c8"></path><path d="M477 470L605 537L662 393Z" fill="#8a5a8e" stroke="#8a5a8e"></path><path d="M482 600L477 470L415 600Z" fill="#242247" stroke="#242247"></path><path d="M415 600L477 470L385 481Z" fill="#5f4373" stroke="#5f4373"></path><path d="M329 600L415 600L385 481Z" fill="#372d56" stroke="#372d56"></path><path d="M677 229L617 74L562 173Z" fill="#5f4373" stroke="#5f4373"></path><path d="M361 0L436 139L491 82Z" fill="#8a5a8e" stroke="#8a5a8e"></path><path d="M361 0L288 68L436 139Z" fill="#a1669b" stroke="#a1669b"></path><path d="M218 600L329 600L287 495Z" fill="#8a5a8e" stroke="#8a5a8e"></path><path d="M287 495L329 600L385 481Z" fill="#4a3864" stroke="#4a3864"></path><path d="M288 68L216 132L261 209Z" fill="#744e81" stroke="#744e81"></path><path d="M90 321L214 372L213 320Z" fill="#ff99c8" stroke="#ff99c8"></path><path d="M482 600L608 600L605 537Z" fill="#a1669b" stroke="#a1669b"></path><path d="M605 537L710 522L662 393Z" fill="#8a5a8e" stroke="#8a5a8e"></path><path d="M661 600L710 522L605 537Z" fill="#5f4373" stroke="#5f4373"></path><path d="M797 312L677 229L666 316Z" fill="#a1669b" stroke="#a1669b"></path><path d="M677 229L707 71L617 74Z" fill="#8a5a8e" stroke="#8a5a8e"></path><path d="M797 312L666 316L662 393Z" fill="#372d56" stroke="#372d56"></path><path d="M617 74L515 0L491 82Z" fill="#e78cbe" stroke="#e78cbe"></path><path d="M809 435L797 312L662 393Z" fill="#5f4373" stroke="#5f4373"></path><path d="M515 0L361 0L491 82Z" fill="#cf7fb3" stroke="#cf7fb3"></path><path d="M288 68L195 0L216 132Z" fill="#4a3864" stroke="#4a3864"></path><path d="M608 600L661 600L605 537Z" fill="#cf7fb3" stroke="#cf7fb3"></path><path d="M617 74L591 0L515 0Z" fill="#b872a7" stroke="#b872a7"></path><path d="M660 0L591 0L617 74Z" fill="#5f4373" stroke="#5f4373"></path><path d="M766 207L707 71L677 229Z" fill="#e78cbe" stroke="#e78cbe"></path><path d="M361 0L313 0L288 68Z" fill="#a1669b" stroke="#a1669b"></path><path d="M90 321L120 421L214 372Z" fill="#e78cbe" stroke="#e78cbe"></path><path d="M214 372L168 525L287 495Z" fill="#242247" stroke="#242247"></path><path d="M90 321L213 320L103 199Z" fill="#242247" stroke="#242247"></path><path d="M120 421L168 525L214 372Z" fill="#242247" stroke="#242247"></path><path d="M826 484L809 435L710 522Z" fill="#cf7fb3" stroke="#cf7fb3"></path><path d="M710 522L809 435L662 393Z" fill="#a1669b" stroke="#a1669b"></path><path d="M707 71L660 0L617 74Z" fill="#4a3864" stroke="#4a3864"></path><path d="M168 525L218 600L287 495Z" fill="#4a3864" stroke="#4a3864"></path><path d="M103 199L213 320L234 219Z" fill="#b872a7" stroke="#b872a7"></path><path d="M62 73L103 199L216 132Z" fill="#744e81" stroke="#744e81"></path><path d="M216 132L103 199L234 219Z" fill="#b872a7" stroke="#b872a7"></path><path d="M818 600L826 484L710 522Z" fill="#744e81" stroke="#744e81"></path><path d="M900 406L900 284L797 312Z" fill="#5f4373" stroke="#5f4373"></path><path d="M766 207L791 69L707 71Z" fill="#744e81" stroke="#744e81"></path><path d="M707 71L806 0L660 0Z" fill="#8a5a8e" stroke="#8a5a8e"></path><path d="M900 185L791 69L766 207Z" fill="#8a5a8e" stroke="#8a5a8e"></path><path d="M900 284L766 207L797 312Z" fill="#cf7fb3" stroke="#cf7fb3"></path><path d="M313 0L195 0L288 68Z" fill="#5f4373" stroke="#5f4373"></path><path d="M0 384L120 421L90 321Z" fill="#372d56" stroke="#372d56"></path><path d="M0 384L60 461L120 421Z" fill="#cf7fb3" stroke="#cf7fb3"></path><path d="M120 421L60 461L168 525Z" fill="#744e81" stroke="#744e81"></path><path d="M168 525L90 600L218 600Z" fill="#a1669b" stroke="#a1669b"></path><path d="M900 406L797 312L809 435Z" fill="#372d56" stroke="#372d56"></path><path d="M826 484L900 406L809 435Z" fill="#8a5a8e" stroke="#8a5a8e"></path><path d="M661 600L818 600L710 522Z" fill="#242247" stroke="#242247"></path><path d="M826 484L900 497L900 406Z" fill="#a1669b" stroke="#a1669b"></path><path d="M900 284L900 185L766 207Z" fill="#5f4373" stroke="#5f4373"></path><path d="M0 167L0 313L103 199Z" fill="#4a3864" stroke="#4a3864"></path><path d="M103 199L0 313L90 321Z" fill="#e78cbe" stroke="#e78cbe"></path><path d="M900 62L806 0L791 69Z" fill="#8a5a8e" stroke="#8a5a8e"></path><path d="M791 69L806 0L707 71Z" fill="#ff99c8" stroke="#ff99c8"></path><path d="M0 486L90 600L60 461Z" fill="#5f4373" stroke="#5f4373"></path><path d="M60 461L90 600L168 525Z" fill="#cf7fb3" stroke="#cf7fb3"></path><path d="M818 600L900 497L826 484Z" fill="#372d56" stroke="#372d56"></path><path d="M0 313L0 384L90 321Z" fill="#a1669b" stroke="#a1669b"></path><path d="M195 0L62 73L216 132Z" fill="#4a3864" stroke="#4a3864"></path><path d="M62 73L0 167L103 199Z" fill="#4a3864" stroke="#4a3864"></path><path d="M0 384L0 486L60 461Z" fill="#a1669b" stroke="#a1669b"></path><path d="M195 0L77 0L62 73Z" fill="#e78cbe" stroke="#e78cbe"></path><path d="M62 73L0 63L0 167Z" fill="#cf7fb3" stroke="#cf7fb3"></path><path d="M900 185L900 62L791 69Z" fill="#cf7fb3" stroke="#cf7fb3"></path><path d="M818 600L900 600L900 497Z" fill="#8a5a8e" stroke="#8a5a8e"></path><path d="M0 0L0 63L62 73Z" fill="#b872a7" stroke="#b872a7"></path><path d="M900 62L900 0L806 0Z" fill="#8a5a8e" stroke="#8a5a8e"></path><path d="M0 486L0 600L90 600Z" fill="#744e81" stroke="#744e81"></path><path d="M77 0L0 0L62 73Z" fill="#5f4373" stroke="#5f4373"></path></g></svg>